<svg width="246" height="76" viewBox="0 0 246 76" fill="none" xmlns="http://www.w3.org/2000/svg">
<path fill-rule="evenodd" clip-rule="evenodd" d="M42.5909 16.1089C41.6442 16.5334 42.0893 18.1632 43.1521 18.1632C43.5961 18.1632 44.2243 17.5378 44.2243 17.0958C44.2243 16.2829 43.3634 15.7625 42.5909 16.1089ZM53.1886 16.7437C51.9011 17.414 52.7352 19.3224 54.0623 18.7429C54.4449 18.5758 54.6042 18.2892 54.6042 17.7679C54.6042 16.9947 53.8101 16.4202 53.1886 16.7437ZM37.6551 17.1819L37.2922 17.5006L37.3109 18.4948C37.331 19.5736 37.5259 20.1694 38.0554 20.7714C38.1629 20.8939 38.2937 21.0746 38.3458 21.1731C38.6076 21.6669 39.0275 22.1256 39.3445 22.264L39.6751 22.4084L39.9865 22.259C40.5477 21.9899 40.7948 21.0221 40.4292 20.525C40.358 20.4281 40.2204 20.2412 40.1234 20.1093C39.8612 19.7532 39.6627 19.1686 39.5479 18.4143C39.3398 17.0467 38.4608 16.4744 37.6551 17.1819ZM47.9687 17.1452C47.7725 17.2126 47.5879 17.3159 47.5588 17.375C46.6983 19.1195 46.715 19.6778 47.643 20.1809C48.0379 20.395 48.8416 20.0028 49.0516 19.4936C49.7133 17.8892 49.1788 16.7305 47.9687 17.1452ZM29.5821 18.8599C29.193 18.9079 28.7633 19.4509 28.7633 19.8951C28.7633 21.0039 30.4356 22.7391 31.3134 22.5414C31.9697 22.3934 32.2961 21.5422 31.9519 20.8761C31.6053 20.2056 30.1771 18.7783 29.8941 18.8198C29.851 18.826 29.7106 18.8442 29.5821 18.8599ZM57.3241 20.4107C56.9004 20.6055 55.8796 21.651 55.7752 21.9972C55.7396 22.1155 55.6725 22.3491 55.6261 22.5166C55.5295 22.8662 55.426 22.8955 55.1841 22.6413C54.6541 22.0844 53.6406 22.3259 53.4551 23.0531C53.048 24.6495 55.1389 24.8196 55.6489 23.2316C55.7151 23.0251 55.9054 23.0051 56.247 23.169C57.0148 23.5374 57.944 22.9727 58.5639 21.761L58.8314 21.2385L58.7088 20.9212C58.4562 20.2686 57.9994 20.1002 57.3241 20.4107ZM46.6009 21.0477C45.7222 21.7085 45.9422 22.76 47.024 23.0705C47.3379 23.1606 47.4401 23.2292 47.5362 23.4142C48.2142 24.7191 49.9078 24.4378 49.7042 23.0542C49.6538 22.7116 49.5976 22.6602 48.8153 22.2394C48.3639 21.9967 48.2628 21.9055 48.105 21.5981C47.8164 21.0356 47.0095 20.7405 46.6009 21.0477ZM51.2695 21.0821C50.3437 21.2537 50.0775 22.651 50.8913 23.0665C52.22 23.7448 53.2556 21.9577 51.9661 21.2117C51.6517 21.0299 51.6016 21.0206 51.2695 21.0821ZM44.2606 21.4349C44.1807 21.4516 44.0447 21.48 43.9585 21.4981C43.6655 21.5594 43.3532 22.0836 43.3532 22.5144C43.3532 23.3935 44.3964 23.8876 45.052 23.3193C45.667 22.7862 45.5629 21.8449 44.8537 21.527C44.5434 21.3879 44.5106 21.3827 44.2606 21.4349ZM40.0505 23.5901C39.9706 23.6038 39.8346 23.6298 39.7484 23.648C39.2866 23.7445 38.8797 24.6118 39.1008 25.0283C39.5416 25.8592 40.5014 25.9672 41.0309 25.2458C41.5405 24.5512 40.8862 23.4462 40.0505 23.5901ZM59.9489 23.8267C58.5541 24.2392 58.8373 25.9145 60.285 25.8147C61.41 25.7372 61.639 24.4373 60.6177 23.9265C60.2383 23.7366 60.2485 23.7381 59.9489 23.8267ZM35.5476 24.4118C34.9758 24.7907 34.8593 25.2279 35.1691 25.8332C35.5954 26.6663 36.3373 26.6846 36.9851 25.878C37.687 25.0041 36.4925 23.7858 35.5476 24.4118ZM24.247 24.5288C23.5235 24.7819 23.3092 25.6871 23.8563 26.1778C24.1953 26.4817 25.8722 26.8691 26.4881 26.7858C27.8342 26.6036 27.7107 24.9488 26.3316 24.6918C26.0922 24.6471 25.7088 24.5627 25.4798 24.5041C24.959 24.371 24.6817 24.3767 24.247 24.5288ZM44.6846 24.6872C44.5158 24.7385 44.3977 24.8577 44.236 25.1407C44.0021 25.5498 43.6549 25.7594 43.2109 25.7594C43.0184 25.7594 42.4173 26.179 42.2475 26.4323C42.0218 26.7684 42.4259 27.7419 42.8454 27.8734C43.513 28.0827 44.0407 27.8348 44.3029 27.1888C44.4435 26.8422 44.5342 26.7148 44.6658 26.6787C45.547 26.4376 45.7326 26.3709 45.8706 26.2457C46.1953 25.9509 46.1393 25.0146 45.783 24.7842C45.5761 24.6502 44.98 24.5977 44.6846 24.6872ZM48.5341 24.6634C48.1017 24.9646 48.0008 25.902 48.3578 26.3034C48.7031 26.6915 48.7584 27.0158 48.5414 27.3812C48.0252 28.2507 48.875 29.1779 49.8732 28.8344C50.3995 28.6534 50.5197 28.0638 50.1764 27.3474C49.9345 26.8428 49.9023 26.5158 50.0707 26.2781C50.3908 25.827 50.2378 25.179 49.7218 24.8018C49.5108 24.6475 48.6938 24.5523 48.5341 24.6634ZM53.9872 25.668C53.4132 25.7515 53.0126 26.7038 53.3449 27.1945C53.7641 27.8131 54.1745 27.9642 54.678 27.685C55.8056 27.0592 55.2654 25.4818 53.9872 25.668ZM35.6605 26.6959C34.6329 27.1192 34.746 28.7515 35.8096 28.8473C36.2781 28.8894 36.412 28.8397 36.7247 28.5083C37.4591 27.7298 36.6199 26.3008 35.6605 26.6959ZM56.6235 27.0313C55.9097 27.7687 56.0467 28.2729 57.1446 28.9489C57.3243 29.0596 57.6459 29.322 57.8596 29.532C58.3928 30.0569 58.5932 30.1071 59.7071 29.9945C61.7518 29.788 62.1969 29.543 62.1396 28.6559C62.0869 27.8395 61.7746 27.7181 59.9291 27.7968L58.7436 27.8472L58.2134 27.3049L57.6834 26.7626H57.2835C56.9163 26.7626 56.8627 26.7843 56.6235 27.0313ZM29.7429 27.2415C28.4935 27.6678 29.3078 29.4987 30.6674 29.3202C31.3128 29.2356 31.9128 28.5305 31.7809 28.0118C31.6259 27.4017 30.5098 26.9799 29.7429 27.2415ZM46.2788 28.4867C45.9158 28.5953 45.5308 29.1085 45.5308 29.4837C45.5308 30.4548 46.9828 30.8648 47.4935 30.0375C48.0006 29.2166 47.2105 28.2077 46.2788 28.4867ZM40.8489 28.5823C39.8467 29.0162 40.2089 30.4724 41.3521 30.6051C41.8717 30.6654 41.8953 30.6868 41.9366 31.1379C42.011 31.9492 42.1972 32.196 42.7823 32.2583C44.2729 32.4166 44.4566 30.5312 42.9893 30.1362C42.4767 29.9984 42.34 29.8528 42.3382 29.4425C42.3348 28.7843 41.4986 28.3011 40.8489 28.5823ZM22.1536 28.649C20.8841 28.9985 20.827 30.2488 22.0644 30.6038C23.3459 30.9717 24.387 30.4229 24.2233 29.4663C24.1174 28.8469 23.015 28.4115 22.1536 28.649ZM51.1697 28.7704C50.7724 28.8881 50.5475 29.2248 50.3756 29.959C50.3183 30.2038 50.1643 30.5425 50.0097 30.7642C49.863 30.9748 49.7074 31.2811 49.6638 31.445C49.6204 31.6088 49.5019 31.8688 49.4006 32.0224C49.2992 32.1762 49.1558 32.4987 49.082 32.7391C49.0084 32.9795 48.8817 33.3535 48.8006 33.5703C48.554 34.2304 48.6669 34.6119 49.1864 34.8734C49.8129 35.1889 50.5104 34.8791 50.8296 34.1436C50.8895 34.0057 51.0247 33.7477 51.13 33.5703C51.2353 33.3929 51.3629 33.0705 51.4136 32.8537C51.4642 32.6369 51.5799 32.3467 51.671 32.2088C51.7776 32.047 51.8644 31.7551 51.9152 31.386C51.984 30.888 52.0256 30.7816 52.2381 30.5619C53.1011 29.6699 52.3552 28.419 51.1697 28.7704ZM38.1996 29.0474C37.5157 29.2319 37.3812 30.8375 38.0348 31.0149C38.7447 31.2075 39.2538 31.0727 39.481 30.6322C39.9656 29.6924 39.2211 28.7715 38.1996 29.0474ZM54.484 29.5897C53.9456 29.8209 53.7086 30.6075 54.0237 31.1178C54.1035 31.2467 54.1686 31.365 54.1686 31.3802C54.1686 31.3955 53.9073 31.6233 53.5879 31.8862C52.8893 32.4617 52.8097 32.7781 53.2227 33.3409C54.0864 34.518 55.8101 33.3068 55.0028 32.0902C54.864 31.8815 54.8989 31.8165 55.2442 31.6407C56.6483 30.9255 55.9241 28.971 54.484 29.5897ZM64.2508 30.2692C63.5435 30.6494 63.5059 31.8961 64.1937 32.1678C64.9699 32.4745 65.7672 32.135 65.8988 31.4422C66.0631 30.5775 65.0366 29.8469 64.2508 30.2692ZM34.4764 30.6073C33.9578 30.8228 33.7538 31.6121 34.0624 32.2092C34.3944 32.8519 35.2948 32.8714 35.7308 32.2458C36.382 31.3115 35.5131 30.1767 34.4764 30.6073ZM57.3503 31.113C56.517 31.6233 56.8839 33.0088 57.8814 33.1199C58.6479 33.2052 59.2292 32.2367 58.8928 31.4347C58.7257 31.0367 57.7926 30.842 57.3503 31.113ZM46.3083 32.0342C45.3997 32.6922 45.8272 33.857 46.977 33.857C47.8431 33.857 48.4021 32.6812 47.7673 32.1951C47.1642 31.733 46.7821 31.6909 46.3083 32.0342ZM40.4585 32.5184C39.6273 32.8284 39.5943 33.9581 40.4059 34.3294C41.0368 34.618 41.5626 34.4448 41.8936 33.8393C42.342 33.0188 41.4122 32.1629 40.4585 32.5184ZM33.3616 33.667C32.8306 34.191 32.8174 34.4869 33.3026 34.9988C33.8712 35.599 34.6605 35.5283 35.0133 34.8457C35.6017 33.7069 34.2779 32.7621 33.3616 33.667ZM24.0089 33.7351C22.5315 34.2933 22.0666 34.8382 22.4442 35.5688C22.6825 36.0302 23.2561 36.2588 23.6621 36.0541C23.773 35.9983 24.0401 35.9157 24.2557 35.8707C25.5144 35.6076 26.0515 34.9303 25.5788 34.202C25.1797 33.587 24.7437 33.4573 24.0089 33.7351ZM28.6919 33.7031C27.4792 34.3452 28.4141 36.0474 29.6834 35.5083C30.099 35.3318 30.2088 35.1843 30.2635 34.7282C30.3685 33.8526 29.4909 33.2801 28.6919 33.7031ZM54.576 34.2503C54.1658 34.5251 53.9241 34.6344 53.541 34.7189C52.7915 34.884 52.484 35.3478 52.7192 35.9588C53.0313 36.7695 53.4657 36.9284 54.3412 36.5518C54.6654 36.4125 55.0614 36.2649 55.221 36.2241C55.9347 36.0419 56.346 35.6217 56.346 35.0752C56.346 34.2439 55.3077 33.76 54.576 34.2503ZM43.2391 34.3508C41.8669 34.9662 42.2454 36.7197 43.7122 36.5425C44.508 36.4461 45.1052 35.5027 44.7723 34.8673C44.4589 34.269 43.8667 34.0696 43.2391 34.3508ZM59.8825 34.263C59.2049 34.3767 58.8453 35.2727 59.2225 35.908C59.5869 36.5221 59.2715 37.1708 58.512 37.3697C57.456 37.6461 57.1426 38.3888 57.7837 39.0951C58.2307 39.5877 58.8568 39.4848 59.3718 38.8342C59.6164 38.5254 60.1047 38.2652 60.5645 38.1991C60.9782 38.1394 61.1615 37.9583 61.3471 37.4257C61.6366 36.5954 61.7025 36.5514 62.4361 36.7005C63.3041 36.8768 63.8497 36.6181 64.1609 35.883C64.2839 35.5922 64.0099 34.9911 63.6809 34.83C63.0354 34.5138 60.5762 34.1467 59.8825 34.263ZM37.1271 34.9281C36.3113 35.4331 36.9417 36.9947 38.1713 37.515C38.5368 37.6698 38.5388 37.6763 38.3463 38.0951C37.7748 39.3385 39.3749 40.3215 40.1531 39.2048C40.6238 38.5294 40.2733 37.8228 39.3334 37.5531C38.8421 37.4121 38.7989 37.3049 39.1125 37.0046C39.5177 36.617 39.3287 35.9258 38.5887 35.088C38.2944 34.7544 37.5407 34.672 37.1271 34.9281ZM46.0898 36.2883C45.7784 36.3993 45.4509 36.5577 45.3619 36.64C45.2729 36.7226 45.0568 36.8402 44.8817 36.9011C44.4743 37.043 44.4051 37.1029 44.2152 37.4786C43.7903 38.3181 44.565 39.1858 45.3988 38.8044C45.5713 38.7257 45.8455 38.6284 46.0084 38.5885C46.1712 38.5486 46.4162 38.4338 46.5527 38.3335C46.6894 38.2331 46.9145 38.079 47.0534 37.9909C47.8146 37.5079 47.8465 36.6172 47.1158 36.2515C46.7005 36.0439 46.7836 36.041 46.0898 36.2883ZM32.8429 37.8677C32.2114 38.3192 32.2062 39.2766 32.8332 39.5924C34.0242 40.1922 35.0392 38.8875 34.1017 37.9618C33.6989 37.5643 33.3082 37.535 32.8429 37.8677ZM51.2819 38.1511C50.4854 38.9375 51.4455 40.3812 52.3841 39.8086C52.8027 39.5532 53.2463 39.5371 53.5948 39.7649C54.5545 40.392 55.5766 39.4686 55.0577 38.4433C54.7986 37.931 53.9952 37.8049 53.5178 38.2013C53.2628 38.4133 53.2773 38.414 52.7611 38.1557C52.1569 37.8532 51.5855 37.8514 51.2819 38.1511ZM21.4683 38.4503C20.8301 38.7842 20.0774 39.6807 20.0065 40.1911C19.9127 40.8666 20.8533 41.4905 21.5391 41.2075C22.1936 40.9376 23.1016 39.7978 23.1016 39.2464C23.1016 38.57 22.1374 38.1 21.4683 38.4503ZM64.336 39.142C63.601 39.512 63.5454 40.4202 64.229 40.8847C65.2208 41.5583 66.4697 40.453 65.8209 39.4756C65.5502 39.0675 64.813 38.902 64.336 39.142ZM47.5039 39.7354C46.9208 40.0862 46.8413 40.9696 47.3474 41.4709C48.2061 42.3214 49.6055 41.1769 48.9852 40.1318C48.6649 39.5924 48.0256 39.4212 47.5039 39.7354ZM28.018 40.1393C27.8082 40.2027 27.6252 40.314 27.5536 40.4222C27.4885 40.5201 27.337 40.6505 27.2168 40.7118C25.8195 41.4252 25.3038 42.9106 26.2993 43.3537C26.8612 43.604 27.2394 43.5047 27.9649 42.917C28.1845 42.7392 28.5122 42.4842 28.693 42.3503C30.2518 41.1972 29.7674 39.6107 28.018 40.1393ZM56.7043 40.2329C55.6789 40.7681 56.4809 42.4562 57.7605 42.4562C57.8054 42.4562 57.9875 42.5473 58.1652 42.6585C58.9499 43.1499 59.566 43.2169 60.0943 42.8683C60.9588 42.298 60.4475 41.1613 59.1359 40.7375C58.8592 40.6481 58.53 40.4993 58.4043 40.4068C57.9692 40.0866 57.1459 40.0024 56.7043 40.2329ZM41.4617 40.8585C40.6106 41.5654 41.2636 42.9566 42.3153 42.677C43.5909 42.3379 43.4277 40.6648 42.1193 40.6648C41.764 40.6648 41.657 40.6963 41.4617 40.8585ZM50.1803 41.1921C49.4204 41.4715 49.385 42.7392 50.1265 43.1127C51.2906 43.699 52.322 41.9875 51.2302 41.2813C50.9969 41.1304 50.4698 41.0855 50.1803 41.1921ZM34.5902 41.6914C34.0821 41.8739 33.8581 42.4549 34.0611 43.0626C34.2395 43.5959 35.1062 43.775 35.6448 43.3898C36.6297 42.6854 35.7529 41.2734 34.5902 41.6914ZM53.4304 41.9549C53.0343 42.1639 52.8633 42.4439 52.8548 42.8972C52.8425 43.5492 52.7977 43.6248 52.3507 43.7461C51.4815 43.9821 51.2626 44.2803 51.388 45.0581C51.5909 46.3161 53.5154 45.8729 53.5154 44.5683C53.5154 44.1655 53.5807 44.0687 53.8969 44.0028C54.0063 43.9799 54.1762 43.9447 54.2739 43.9248C54.5209 43.8744 54.9673 43.2001 54.9662 42.8787C54.9642 42.2231 54.0096 41.6489 53.4304 41.9549ZM46.3656 42.2493C44.7612 43.0931 44.4928 45.0308 45.9798 45.035C46.9047 45.0378 47.8485 43.9837 47.8528 42.9434C47.8554 42.2972 47.0176 41.9063 46.3656 42.2493ZM39.4698 43.4804C38.366 43.8303 38.4919 45.423 39.6305 45.512C40.3027 45.5645 40.7362 45.1667 40.7389 44.4947C40.7401 44.2168 40.3953 43.5339 40.2517 43.5295C40.221 43.5285 40.0813 43.5016 39.9417 43.4696C39.7968 43.4364 39.5939 43.441 39.4698 43.4804ZM57.3911 43.9541C56.522 44.4771 56.8568 45.8406 57.8794 45.9434C58.6413 46.0199 59.2485 44.9931 58.8662 44.2746C58.6454 43.8594 57.8394 43.6842 57.3911 43.9541ZM43.6072 44.4392C43.2439 44.5366 42.845 45.0901 42.845 45.4973C42.845 46.1316 43.7491 46.7023 44.3257 46.432C45.148 46.0468 45.3583 44.6251 44.6104 44.5077C44.0683 44.4226 43.7504 44.401 43.6072 44.4392ZM61.5348 44.8393C61.0658 45.3023 61.0673 45.6729 61.5404 46.2196C62.4639 47.2869 64.0042 46.8108 63.7844 45.5259C63.6965 45.0123 63.0767 44.5859 62.3603 44.546L61.8603 44.5182L61.5348 44.8393ZM28.8629 45.5925C28.3197 45.9415 28.1044 46.6863 28.4134 47.1468C29.2509 48.3951 30.9057 47.3761 30.2143 46.0378C29.9983 45.62 29.2195 45.3633 28.8629 45.5925ZM50.1054 45.6297C49.4123 45.9758 49.4477 47.3902 50.1551 47.6207C51.2626 47.9815 52.0885 47.0619 51.5744 46.0404C51.465 45.8229 51.3425 45.6215 51.3021 45.5925C51.1812 45.5056 50.2988 45.533 50.1054 45.6297ZM53.8073 45.6255C53.0751 46.0078 53.1554 47.071 53.9814 47.9383L54.3911 48.3682L54.3507 48.9774C54.2342 50.7292 55.7466 51.0093 56.6005 49.3937C56.7527 49.1055 56.9538 48.7787 57.0473 48.6672C57.5256 48.0973 57.104 47.3903 55.6508 46.3258C55.4625 46.188 55.1804 45.9648 55.0243 45.8298C54.6997 45.5495 54.1344 45.4547 53.8073 45.6255ZM24.7576 45.9615C23.4876 46.8132 23.156 47.8825 23.9614 48.5295C24.4063 48.8869 25.4429 48.3415 26.161 47.3722C26.8848 46.3949 25.775 45.2793 24.7576 45.9615ZM33.8708 47.2893C33.6268 47.394 33.4076 47.7243 32.912 48.7335C32.5051 49.5624 32.5062 49.5547 32.724 50.1025C33.004 50.8068 33.0912 50.8764 33.6936 50.8764C34.0901 50.8764 34.2249 50.8471 34.3529 50.7331C34.7611 50.3693 35.2236 49.0314 35.2236 48.2148C35.2236 47.5264 34.4888 47.0238 33.8708 47.2893ZM44.7686 48.0487C43.9129 48.6797 44.3287 49.9126 45.3954 49.9073C46.0494 49.9042 46.5484 49.477 46.5466 48.9221C46.5438 48.0377 45.4874 47.5189 44.7686 48.0487ZM38.2556 49.1211C37.3606 49.6761 37.8115 51.0507 38.8892 51.0527C39.1907 51.0533 39.6672 50.7708 39.7896 50.5187C40.2809 49.5076 39.2084 48.5304 38.2556 49.1211ZM41.5538 49.2456C40.407 49.6283 40.3094 52.9986 41.4316 53.4615C42.5429 53.92 42.921 53.4229 42.9726 51.4356C43.0243 49.4388 42.6601 48.8765 41.5538 49.2456ZM49.0412 50.2363C48.2265 50.6243 48.3073 51.396 49.3518 53.2054C49.4088 53.3039 49.5545 53.586 49.676 53.8324C49.9744 54.4383 50.3081 54.6386 51.0195 54.6386C52.0462 54.6386 52.3472 53.7226 51.6569 52.6989C51.5389 52.5243 51.3867 52.2683 51.3182 52.1304C50.8596 51.2056 50.2402 50.3672 49.9175 50.2339C49.4915 50.0584 49.4145 50.0585 49.0412 50.2363ZM57.4712 51.3114C56.6713 51.7223 56.6428 52.3446 57.3904 53.0827C58.4512 54.1305 59.0407 54.2508 59.609 53.5358C60.318 52.6436 58.5202 50.773 57.4712 51.3114ZM28.4332 51.7294C27.8457 51.9821 27.7149 53.0878 28.2259 53.4846C28.706 53.8575 29.5339 53.7008 29.7375 53.1984C30.1426 52.1989 29.3687 51.3274 28.4332 51.7294ZM36.6401 55.1915C36.0661 55.5079 35.659 56.6927 35.659 58.0461C35.659 59.6773 37.6692 59.8368 37.8686 58.2215C37.8953 58.0048 37.9971 57.5225 38.0947 57.1499C38.5298 55.4885 37.8243 54.5388 36.6401 55.1915ZM44.2029 55.9334C43.6397 56.3018 43.5195 56.6905 43.7883 57.2751C44.2317 58.2397 45.8192 57.8574 45.8207 56.7857C45.8218 56.0188 44.8532 55.5083 44.2029 55.9334ZM48.0688 57.3079C46.9294 57.8757 47.427 60.1131 48.6666 59.9955C49.6428 59.9029 50.0028 58.8155 49.4062 57.7614C49.0512 57.1345 48.6738 57.0065 48.0688 57.3079Z" fill="#242B38"/>
<path d="M76 45.4399V41.0239L86.112 26.5599H92.224V40.7039H94.848V45.4399H92.224V49.5999H86.752V45.4399H76ZM87.136 32.5759L81.76 40.7039H87.136V32.5759Z" fill="#242B38"/>
<path d="M117.528 27.1359V49.5999H112.056V40.3519H103.544V49.5999H98.0723V27.1359H103.544V35.9359H112.056V27.1359H117.528Z" fill="#242B38"/>
<path d="M138.311 40.3839C138.311 40.8959 138.278 41.4293 138.215 41.9839H125.831C125.916 43.0933 126.268 43.9466 126.887 44.5439C127.527 45.1199 128.305 45.4079 129.222 45.4079C130.588 45.4079 131.537 44.8319 132.07 43.6799H137.895C137.596 44.8533 137.052 45.9093 136.263 46.8479C135.494 47.7866 134.524 48.5226 133.351 49.0559C132.177 49.5893 130.865 49.8559 129.415 49.8559C127.665 49.8559 126.108 49.4826 124.743 48.7359C123.377 47.9893 122.311 46.9226 121.542 45.5359C120.774 44.1493 120.39 42.5279 120.39 40.6719C120.39 38.8159 120.764 37.1946 121.51 35.8079C122.278 34.4213 123.345 33.3546 124.71 32.6079C126.076 31.8613 127.644 31.4879 129.415 31.4879C131.143 31.4879 132.678 31.8506 134.022 32.5759C135.367 33.3013 136.412 34.3359 137.159 35.6799C137.926 37.0239 138.311 38.5919 138.311 40.3839ZM132.71 38.9439C132.71 38.0053 132.39 37.2586 131.75 36.7039C131.111 36.1493 130.311 35.8719 129.351 35.8719C128.433 35.8719 127.654 36.1386 127.014 36.6719C126.396 37.2053 126.012 37.9626 125.862 38.9439H132.71Z" fill="#242B38"/>
<path d="M140.109 40.6399C140.109 38.8053 140.451 37.1946 141.133 35.8079C141.837 34.4213 142.787 33.3546 143.981 32.6079C145.176 31.8613 146.509 31.4879 147.981 31.4879C149.24 31.4879 150.339 31.7439 151.277 32.2559C152.237 32.7679 152.973 33.4399 153.485 34.2719V31.7439H158.957V49.5999H153.485V47.0719C152.952 47.9039 152.205 48.5759 151.245 49.0879C150.307 49.5999 149.208 49.8559 147.949 49.8559C146.499 49.8559 145.176 49.4826 143.981 48.7359C142.787 47.9679 141.837 46.8906 141.133 45.5039C140.451 44.0959 140.109 42.4746 140.109 40.6399ZM153.485 40.6719C153.485 39.3066 153.101 38.2293 152.333 37.4399C151.587 36.6506 150.669 36.2559 149.581 36.2559C148.493 36.2559 147.565 36.6506 146.797 37.4399C146.051 38.2079 145.677 39.2746 145.677 40.6399C145.677 42.0053 146.051 43.0933 146.797 43.9039C147.565 44.6933 148.493 45.0879 149.581 45.0879C150.669 45.0879 151.587 44.6933 152.333 43.9039C153.101 43.1146 153.485 42.0373 153.485 40.6719Z" fill="#242B38"/>
<path d="M168.388 25.9199V49.5999H162.916V25.9199H168.388Z" fill="#242B38"/>
<path d="M182.306 44.9599V49.5999H179.521C177.537 49.5999 175.991 49.1199 174.882 48.1599C173.772 47.1786 173.217 45.5893 173.217 43.3919V36.2879H171.041V31.7439H173.217V27.3919H178.689V31.7439H182.273V36.2879H178.689V43.4559C178.689 43.9893 178.818 44.3733 179.074 44.6079C179.329 44.8426 179.756 44.9599 180.354 44.9599H182.306Z" fill="#242B38"/>
<path d="M196.329 31.5519C198.378 31.5519 200.02 32.2346 201.257 33.5999C202.495 34.9439 203.114 36.7999 203.114 39.1679V49.5999H197.674V39.9039C197.674 38.7093 197.364 37.7813 196.745 37.1199C196.127 36.4586 195.295 36.1279 194.249 36.1279C193.204 36.1279 192.372 36.4586 191.754 37.1199C191.135 37.7813 190.826 38.7093 190.826 39.9039V49.5999H185.354V25.9199H190.826V34.1439C191.38 33.3546 192.138 32.7253 193.098 32.2559C194.058 31.7866 195.135 31.5519 196.329 31.5519Z" fill="#242B38"/>
<path d="M225.156 31.7439L213.956 58.0799H208.068L212.164 48.9919L204.9 31.7439H211.012L215.14 42.9119L219.236 31.7439H225.156Z" fill="#242B38"/>
</svg>
