<svg width="494" height="564" viewBox="0 0 494 564" fill="none" xmlns="http://www.w3.org/2000/svg">
<path fill-rule="evenodd" clip-rule="evenodd" d="M159.731 377.111C160.441 375.734 161.197 374.363 162 373C250.891 456.251 328.704 410.921 382.798 360.257L384.047 360.521C385.213 359.228 386.86 359.219 388.208 360.312C389.802 361.637 391.776 361.376 393.68 361.125C394.038 361.078 394.394 361.031 394.745 360.994C394.353 361.923 393.971 362.852 393.597 363.789C394.008 364.366 394.434 364.934 394.861 365.503C396.005 367.029 397.154 368.561 398.022 370.272C397.349 371.445 397.655 372.66 397.959 373.87C398.054 374.246 398.148 374.623 398.213 374.997C398.478 375.028 398.79 374.995 399.111 374.96C399.891 374.876 400.719 374.786 401.036 375.625C401.073 376.576 400.285 376.663 399.511 376.748C399.158 376.787 398.809 376.825 398.541 376.945C398.853 377.225 399.15 377.542 399.452 377.864C399.935 378.38 400.433 378.91 401.026 379.33C400.854 380.527 400.242 381.538 399.629 382.55L399.629 382.55L399.628 382.552C399.463 382.824 399.298 383.096 399.142 383.372C399.186 386.025 401.137 387.877 402.926 389.575L403.048 389.691C402.31 390.191 401.582 390.701 400.863 391.22C403.336 393.399 403.122 396.272 402.905 399.184C402.78 400.871 402.654 402.571 403.048 404.157C401.891 404.394 400.753 404.667 399.624 404.958C400.944 405.231 402.292 405.404 403.658 405.486L403.639 405.65C403.518 406.733 403.397 407.808 403.293 408.9C403.539 409.246 404.031 409.929 404.277 410.266C404.137 410.775 404.049 411.3 403.962 411.823L403.961 411.826C403.762 413.013 403.564 414.194 402.774 415.173C403.348 416.347 403.958 417.504 404.586 418.669C404.745 418.519 404.984 418.292 405.222 418.065C405.462 417.837 405.701 417.609 405.861 417.458C405.806 418.023 405.688 419.151 405.624 419.725C402.996 421.146 403.077 423.756 403.16 426.424C403.238 428.951 403.318 431.529 401.099 433.199C401.201 434.535 401.172 435.874 401.143 437.214C401.112 438.642 401.082 440.07 401.208 441.493L401.2 441.488L401.199 441.487L401.189 441.481L401.179 441.475C400.415 441.007 399.651 440.54 398.905 440.082C399.396 441.318 399.86 442.581 400.323 443.845L400.324 443.848L400.325 443.851C399.961 443.969 399.224 444.206 398.851 444.324C398.832 444.679 398.787 445.389 398.759 445.745C399.626 445.887 400.458 446.188 401.298 446.492L401.345 446.509C400.735 447.684 399.925 448.731 399.042 449.714C399.428 450.001 399.771 450.331 400.119 450.666C400.345 450.884 400.573 451.105 400.817 451.316C400.271 452.208 399.734 453.11 399.206 454.02L399.191 454.02C398.55 454.011 397.917 454.002 397.294 454.011C397.148 455.304 397.021 456.597 396.911 457.908L396.921 457.9C397.692 457.284 398.472 456.659 399.424 456.342C399.014 457.525 398.404 458.627 397.685 459.656C396.857 459.546 396.047 459.446 395.227 459.346C396.037 460.693 396.811 462.077 397.558 463.47C395.418 462.906 392.459 463.488 392.514 466.211L392.513 466.211C391.576 466.721 390.638 467.23 389.719 467.749C390.318 468.086 390.915 468.419 391.515 468.755L391.525 468.761C391.961 469.004 392.399 469.249 392.842 469.497C393.306 471.955 390.985 473.221 389.109 474.122C389.428 474.513 389.756 474.905 390.102 475.315C389.036 476.061 388.062 476.908 387.124 477.809C387.227 478.042 387.376 478.28 387.526 478.521C387.989 479.263 388.472 480.038 387.716 480.786C387.143 480.368 386.578 479.958 386.014 479.557C386.096 483.39 383.701 486.649 380.296 488.179C379.313 490.5 377.838 493.277 375.016 493.486C375.553 494.151 376.09 494.825 376.637 495.517C375.916 497.401 374.167 498.332 372.435 499.253C370.292 500.394 368.175 501.52 368.07 504.42C367.833 504.093 367.359 503.437 367.123 503.1C366.913 503.965 366.704 504.839 366.504 505.722C365.418 506.149 364.382 506.678 363.345 507.208L363.344 507.208C362.433 507.674 361.522 508.14 360.577 508.536C359.426 509.123 359.762 510.236 360.063 511.235C360.102 511.366 360.141 511.496 360.176 511.622C355.252 514.046 350.102 515.957 344.958 517.866C340.81 519.405 336.665 520.943 332.646 522.747C332.963 524.423 334.403 523.988 335.665 523.608C336.069 523.486 336.454 523.369 336.779 523.33C336.647 523.709 336.435 524.331 336.244 524.892L336.096 525.325C336.042 525.485 335.992 525.63 335.95 525.751C335.149 525.879 334.357 526.006 333.574 526.161C333.509 526.459 333.479 526.781 333.448 527.108C333.361 528.019 333.272 528.961 332.427 529.484C331.718 529.805 330.946 529.823 330.175 529.841C329.678 529.853 329.182 529.865 328.704 529.957C327.936 530.634 327.622 531.638 327.309 532.638C326.907 533.925 326.507 535.203 325.144 535.757C323.645 536.457 322.37 537.491 321.096 538.523C319.64 539.703 318.187 540.881 316.404 541.556C316.45 541.686 316.496 541.816 316.542 541.946L317.121 543.59C317.173 543.737 317.225 543.884 317.278 544.032C316.185 543.914 315.093 543.777 314.028 543.523C313.308 544.843 312.644 546.199 312.189 547.647C311.342 547.72 310.486 547.801 309.649 547.893C309.643 548.612 309.645 549.34 309.647 550.073V550.077L309.647 550.089C309.648 550.454 309.649 550.821 309.649 551.188C305.616 552.017 302.283 554.42 299.325 557.188C298.004 557.133 296.703 557.106 295.401 557.088C295.008 557.652 294.635 558.24 294.262 558.831C293.183 560.538 292.094 562.261 290.457 563.451C287.653 564.189 286.843 561.112 286.542 559.009C286.124 560.128 285.705 561.257 285.295 562.395C284.667 562.159 284.048 561.94 283.447 561.731C282.946 562.395 282.464 563.096 281.99 563.788C281.699 562.195 280.78 560.966 279.032 561.03C279.004 561.94 278.977 562.86 278.959 563.797C277.202 562.641 276.61 560.675 276.3 558.708C275.663 559.409 275.035 560.119 274.407 560.839C274.011 559.849 273.627 558.866 273.245 557.888L272.968 557.179L272.968 557.181C272.768 558.09 272.567 559 272.386 559.928C272.13 560.143 271.877 560.362 271.623 560.58C270.9 561.203 270.174 561.827 269.399 562.386C268.352 562.344 267.99 561.441 267.62 560.516C267.266 559.633 266.905 558.731 265.931 558.544C265.033 558.164 264.111 558.278 263.185 558.392C262.448 558.483 261.708 558.574 260.978 558.417C259.808 558.151 258.649 558.342 257.488 558.534C256.418 558.71 255.346 558.887 254.259 558.708C254.487 558.089 254.724 557.479 254.969 556.887C254.105 555.23 252.748 554.083 250.891 553.783C249.099 552.254 246.934 551.605 244.745 550.948L244.391 550.842L244.272 550.806C244.855 549.458 245.346 548.084 245.802 546.7C244.463 546.955 243.161 547.355 241.905 547.865C241.798 547.291 241.695 546.72 241.593 546.158L241.59 546.139C241.546 545.897 241.502 545.656 241.459 545.416C240.139 544.615 238.882 543.741 237.763 542.703C236.98 542.612 236.197 542.53 235.423 542.476C235.364 542.296 235.306 542.117 235.249 541.938C235.059 541.346 234.871 540.761 234.64 540.209C234.198 539.866 233.627 539.738 233.06 539.611C232.227 539.425 231.405 539.241 231.026 538.379C230.502 537.704 230.86 536.974 231.187 536.307C231.275 536.127 231.361 535.952 231.426 535.784C231.011 535.568 230.579 535.392 230.15 535.218C229.874 535.106 229.599 534.995 229.332 534.874C228.704 535.848 228.076 536.831 227.448 537.814C227.131 537.184 226.91 536.492 226.69 535.802C226.373 534.805 226.056 533.812 225.454 533.016C220.337 531.897 215.139 530.003 211.343 526.261C210.482 525.257 209.298 524.762 208.121 524.268C206.821 523.724 205.528 523.182 204.687 521.964C203.563 520.292 201.705 519.941 199.842 519.589C198.824 519.397 197.805 519.205 196.903 518.796C195.575 517.511 194.454 516.046 193.335 514.583L193.334 514.582C192.827 513.92 192.321 513.258 191.796 512.614C191.917 512.152 192.049 511.7 192.179 511.256L192.18 511.254L192.18 511.252L192.181 511.251L192.247 511.025L192.288 510.884C189.656 511.059 187.864 509.545 186.047 508.011C184.652 506.832 183.242 505.641 181.426 505.194C182.109 504.639 182.783 504.093 183.466 503.556C181.927 501.953 179.988 500.833 177.976 499.941C178.222 499.404 178.477 498.885 178.732 498.375C177.484 498.548 176.237 498.739 174.999 498.94C175.063 498.038 175.136 497.146 175.217 496.272C174.289 496.063 173.378 495.881 172.459 495.717C172.659 494.816 172.878 493.942 173.16 493.086C172.113 493.514 171.075 493.951 170.037 494.406C169.008 492.804 168.744 490.91 168.526 489.071C167.497 488.543 166.478 488.033 165.458 487.541C165.366 487.313 165.276 487.086 165.186 486.86C165.008 486.414 164.832 485.974 164.657 485.539C164.448 485.446 164.241 485.353 164.034 485.26C163.572 485.053 163.113 484.848 162.654 484.646C162.398 483.413 161.697 482.412 161.002 481.42C160.066 480.082 159.139 478.759 159.322 476.899C157.501 475.988 155.717 474.978 154.296 473.503L154.4 473.175C154.612 472.509 154.824 471.84 155.043 471.19C154.789 471.104 154.409 470.978 154.028 470.851L154.022 470.849C153.64 470.721 153.258 470.594 153.004 470.508C153.732 470.271 154.478 470.034 155.216 469.816C153.732 468.104 151.738 467.066 149.462 466.93C150.205 466.269 150.947 465.617 151.69 464.964L151.702 464.954L151.693 464.952L151.692 464.952L151.691 464.952C150.657 464.707 149.622 464.462 148.597 464.235C149.245 462.597 148.973 460.962 148.699 459.315C148.53 458.299 148.361 457.279 148.406 456.251C148.411 455.181 147.688 454.485 146.958 453.783C146.391 453.237 145.819 452.687 145.584 451.954C145.519 451.737 145.453 451.52 145.388 451.303C144.622 448.771 143.841 446.189 144.218 443.514C144.138 443.462 144.037 443.397 143.927 443.326L143.926 443.325L143.923 443.323C143.645 443.143 143.311 442.927 143.116 442.804C143.192 442.605 143.268 442.406 143.343 442.208C143.556 441.646 143.766 441.091 143.981 440.546C141.305 438.024 140.176 434.109 140.859 430.522C140.797 429.307 140.404 428.149 140.012 426.991C139.596 425.764 139.18 424.536 139.156 423.239C139.227 422.966 139.298 422.692 139.37 422.419C139.835 420.645 140.3 418.869 140.458 417.039C140.126 416.887 139.794 416.737 139.464 416.588L139.455 416.584L139.428 416.572L139.426 416.571L139.424 416.57C139.116 416.432 138.811 416.294 138.51 416.156C139.12 414.381 139.766 412.624 140.549 410.921C137.746 409.101 139.421 405.614 140.58 403.2C140.645 403.067 140.707 402.936 140.768 402.81C140.292 401.44 139.617 400.163 138.944 398.89C138.857 398.725 138.77 398.56 138.683 398.394C139.584 398.23 140.485 398.075 141.387 397.93C141.316 397.797 141.242 397.664 141.168 397.53C140.603 396.512 140.01 395.442 140.413 394.252C140.526 393.706 140.617 393.143 140.707 392.577C141.044 390.473 141.389 388.322 142.989 386.786C142.63 386.409 142.267 386.036 141.908 385.667L141.907 385.666C141.72 385.474 141.534 385.283 141.35 385.093C142.06 381.715 143.344 378.511 144.983 375.497C144.473 374.459 143.972 373.431 143.481 372.402C144.746 369.871 145.119 366.958 144.163 364.254C144.992 363.016 145.857 361.814 146.74 360.621C151.043 366.139 155.366 371.642 159.731 377.111ZM265.821 543.454C266.204 544.126 266.587 544.798 266.97 545.47L266.978 545.482C269.174 549.332 271.37 553.181 273.578 557.024C275.061 554.299 276.589 551.598 278.144 548.914C273.963 547.163 269.854 545.342 265.821 543.454Z" fill="url(#paint0_linear_157_121)"/>
<path d="M298 276V0L200 167.5V391.5L202 393.5L270.5 290.5L298 276Z" fill="#F5D00B"/>
<path d="M0.701016 292.459C1.7167 291.75 2.93654 291.756 4.13889 291.761C4.54235 291.763 4.94384 291.765 5.33499 291.74C24.7304 291.873 44.1258 291.884 63.5213 291.896C74.6883 291.903 85.8553 291.91 97.0224 291.94C96.8949 292.158 96.6491 292.595 96.5216 292.823C96.3851 293.142 96.1211 293.797 95.9936 294.125C95.9936 294.125 95.9936 294.125 95.9936 294.125L95.6476 294.981C80.3685 294.844 65.0808 294.87 49.7918 294.895C33.4965 294.922 17.1998 294.949 0.910339 294.78L1.0469 294.025L0 293.733L0.701016 292.459Z" fill="#E2A300"/>
<path fill-rule="evenodd" clip-rule="evenodd" d="M199.962 178.385C201.133 249.551 199.206 320.746 199.999 391.921L199.48 391.693C197.532 390.747 195.756 389.499 194.027 388.225C187.251 384.293 181.716 378.67 176.248 373.116C175.449 372.304 174.652 371.494 173.852 370.69C164.347 360.029 156.317 347.976 150.873 334.738C146.849 326.645 144.4 317.914 142.461 309.128C141.898 307.011 141.488 304.861 141.079 302.714C140.872 301.63 140.666 300.547 140.44 299.469C139.557 287.825 140.021 276.017 141.942 264.482L141.687 261.305C142.272 259.411 142.8 257.498 143.328 255.586C144.445 251.54 145.563 247.494 147.213 243.624C147.787 240.322 149.299 237.367 150.808 234.419C151.358 233.344 151.908 232.269 152.412 231.179C155.48 223.778 160.077 217.122 164.839 210.731C166.587 208.091 169.646 206.434 172.85 207.035C173.002 207.207 173.11 207.457 173.22 207.712C173.452 208.251 173.693 208.81 174.38 208.692C175.122 208.124 175.814 207.48 176.502 206.84C176.641 206.71 176.781 206.581 176.92 206.452C178.222 206.543 179.515 206.634 180.826 206.744C181.363 206.116 181.909 205.497 182.464 204.887C185.623 204.859 188.801 204.805 191.933 204.231C192.693 204.046 193.476 204.174 194.255 204.302C195.274 204.47 196.286 204.637 197.231 204.094C198.074 203.266 198.627 202.211 199.173 201.171C199.31 200.908 199.448 200.646 199.589 200.389C199.88 193.051 199.443 185.695 199.962 178.385Z" fill="url(#paint1_linear_157_121)"/>
<path d="M140.807 264.097C141.092 263.162 141.376 262.228 141.687 261.305L141.942 264.482C140.021 276.017 139.557 287.825 140.44 299.469C140.666 300.547 140.872 301.63 141.079 302.714C141.488 304.861 141.898 307.011 142.461 309.128C144.4 317.914 146.849 326.645 150.873 334.738C156.317 347.976 164.347 360.029 173.852 370.69C174.652 371.494 175.449 372.304 176.249 373.116C181.716 378.67 187.251 384.293 194.027 388.225C195.756 389.499 198.052 391.053 200 392L200.29 426.107C170.613 391.059 142.132 355.257 114.284 318.733C114.502 318.132 114.93 316.912 115.139 316.312C114.887 315.942 114.626 315.576 114.364 315.209C113.241 313.633 112.111 312.048 111.616 310.157C112.672 310.54 113.728 310.931 114.784 311.341C114.841 310.621 114.78 309.869 114.72 309.115C114.585 307.447 114.451 305.773 115.586 304.431C116.503 303.091 116.997 301.514 117.489 299.943C118.207 297.648 118.921 295.365 120.948 293.852C121.678 291.647 122.804 289.637 123.932 287.625C124.788 286.097 125.645 284.569 126.328 282.954C126.68 282.758 127.073 282.613 127.467 282.467C128.245 282.179 129.028 281.889 129.506 281.206C130.818 279.023 132.483 277.094 134.147 275.167C136.326 272.643 138.502 270.123 139.875 267.04C140.207 266.065 140.507 265.08 140.807 264.097Z" fill="url(#paint2_linear_157_121)"/>
<path fill-rule="evenodd" clip-rule="evenodd" d="M184.466 149.4C182.553 152.329 180.642 155.257 178.704 158.164C169.455 172.339 160.259 186.542 151.31 200.908C144.753 211.548 138.394 222.306 132.037 233.064C128.597 238.885 125.157 244.706 121.685 250.507C114.172 262.815 106.856 275.24 99.5403 287.664C98.7011 289.089 97.8618 290.515 97.0223 291.94C96.8949 292.158 96.649 292.595 96.5216 292.823C96.385 293.142 96.121 293.797 95.9935 294.125L95.6476 294.981C99.4431 299.728 103.182 304.525 106.921 309.321C109.37 312.464 111.819 315.606 114.284 318.733C114.502 318.132 114.93 316.912 115.139 316.312C114.887 315.942 114.626 315.576 114.364 315.209C113.241 313.633 112.111 312.048 111.616 310.157C112.672 310.54 113.728 310.931 114.784 311.341C114.841 310.621 114.78 309.869 114.72 309.115C114.585 307.447 114.45 305.773 115.586 304.431C116.503 303.091 116.997 301.514 117.488 299.943C118.207 297.648 118.921 295.365 120.948 293.852C121.678 291.647 122.804 289.637 123.932 287.625C124.788 286.097 125.645 284.569 126.328 282.954C126.68 282.758 127.073 282.613 127.467 282.467C128.245 282.179 129.028 281.889 129.506 281.206C130.818 279.023 132.483 277.094 134.147 275.167C136.326 272.643 138.502 270.123 139.875 267.04C140.207 266.065 140.507 265.08 140.807 264.097C141.092 263.162 141.376 262.228 141.687 261.305C142.272 259.411 142.8 257.498 143.328 255.586C144.445 251.54 145.563 247.494 147.213 243.624C147.787 240.322 149.299 237.367 150.808 234.419C151.358 233.344 151.908 232.269 152.412 231.179C155.48 223.778 160.077 217.122 164.839 210.731C166.587 208.091 169.646 206.434 172.85 207.035C173.002 207.207 173.11 207.457 173.22 207.712C173.452 208.251 173.693 208.81 174.38 208.692C175.122 208.124 175.814 207.481 176.502 206.84C176.641 206.71 176.781 206.581 176.92 206.452C178.222 206.543 179.515 206.634 180.826 206.744C181.363 206.116 181.909 205.496 182.464 204.887C185.623 204.859 188.801 204.805 191.933 204.231C192.693 204.046 193.476 204.174 194.255 204.302C195.274 204.47 196.286 204.637 197.231 204.094C198.074 203.266 198.627 202.211 199.172 201.171C199.31 200.908 199.448 200.646 199.589 200.389C199.715 197.216 199.705 194.039 199.695 190.864C199.681 186.697 199.668 182.534 199.962 178.384C210.341 172.458 221.23 167.205 232.819 164.146C254.022 158.246 276.865 158.192 298.086 163.909C318.844 169.991 338.244 181.143 353.266 196.775C374.169 218.151 387.124 247.102 389.073 276.936C390.639 296.647 387.088 316.539 379.768 334.847C365.557 369.088 335.668 396.664 299.834 406.761C299.907 409.11 299.918 411.461 299.93 413.814C299.941 416.166 299.953 418.519 300.025 420.872L301.163 421.036C308.347 419.352 315.247 416.675 321.994 413.698C328.676 410.821 334.94 407.052 341.067 403.128C349.406 397.748 356.88 391.129 363.772 384.01C370.737 376.735 376.864 368.678 382.153 360.12C387.17 351.936 391.54 343.287 394.681 334.21L394.781 334.283C398.04 325.479 400.416 316.348 401.791 307.053C407.772 269.425 397.33 229.668 374.096 199.552C355.178 174.679 327.556 156.453 297.067 149.406C272.722 144.162 247.021 145.054 223.26 152.638C217.432 154.581 211.83 157.095 206.238 159.604C204.99 160.165 203.743 160.725 202.493 161.278C201.815 161.702 201.245 162.265 200.678 162.826C200.453 163.048 200.229 163.269 199.999 163.481C200.001 159.839 199.998 156.198 199.994 152.557C199.985 143.911 199.977 135.267 200.053 126.619C194.538 133.975 189.5 141.69 184.466 149.4Z" fill="#242B38"/>
<path d="M299.834 406.761C294.008 408.227 288.145 409.565 282.181 410.33C273.551 411.522 264.793 411.586 256.126 410.912C236.989 409.638 218.744 402.591 202.348 392.904C220.737 366.279 237.188 338.311 256 312C270.36 332.515 284.891 352.895 299.579 373.176C300.117 384.328 299.689 395.572 299.834 406.761Z" fill="#F8E756"/>
<path d="M336.692 56.7173C334.783 56.0124 332.847 55.2973 330.797 55.3062C330.779 55.7796 330.761 56.7446 330.752 57.2271C332.969 58.179 335.271 58.9163 337.574 59.6536C338.883 60.0728 340.192 60.492 341.486 60.9507C364.847 69.1626 386.933 81.0162 406.507 96.1927C435.959 118.243 459.857 147.531 475.953 180.597C481.834 192.56 486.486 205.087 490.729 217.714C491.439 219.863 493.934 217.678 492.686 216.094C485.613 193.333 475.552 171.402 462.169 151.664C432.809 106.981 387.643 73.1138 336.815 56.7628L336.692 56.7173Z" fill="#E2A300"/>
<path d="M188.855 62.2308C188.434 62.3889 188.04 62.5371 187.726 62.5985C154.852 74.4521 125.227 94.6632 101.192 119.927C75.6732 146.547 56.3998 179.122 45.3748 214.3C45.136 215.62 44.7003 216.91 44.2651 218.198C43.539 220.347 42.8142 222.493 43.0077 224.77C43.2058 224.757 43.4997 224.736 43.7998 224.714L43.8028 224.714L43.8053 224.714C44.1377 224.69 44.4769 224.666 44.7011 224.651C46.8406 217.45 49.1166 210.285 51.8023 203.275C68.0349 159.63 97.4593 121.029 135.068 93.6162C152.384 80.7612 171.785 71.0107 191.914 63.3815C192.062 61.0251 190.303 61.6866 188.855 62.2308Z" fill="#E2A300"/>
<path d="M490.884 359.228C490.984 357.954 491.922 357.207 493.178 357.189C493.254 359.55 492.541 361.792 491.834 364.019L491.832 364.025C491.687 364.484 491.541 364.942 491.403 365.401C475.807 417.121 441.949 462.988 397.394 493.486C378.676 506.123 358.246 516.292 336.779 523.33C336.454 523.369 336.069 523.486 335.664 523.608C334.403 523.988 332.963 524.423 332.646 522.747C336.665 520.943 340.809 519.405 344.958 517.866C350.102 515.957 355.252 514.046 360.176 511.622C416.066 486.13 461.259 438.225 483.446 380.942C486.141 373.777 488.763 366.584 490.884 359.228Z" fill="#E2A300"/>
<path d="M45.9574 358.318C45.4749 358.391 44.4917 358.545 44.0092 358.627C51.9206 390.173 67.525 419.543 87.5905 445.053C108.976 471.973 135.997 494.624 166.796 510.02C174.07 513.789 181.618 517.021 189.22 520.061C189.436 520.133 189.661 520.214 189.892 520.297C191.481 520.867 193.357 521.541 194.636 520.07C194.127 519.706 193.098 518.969 192.588 518.596C163.191 507.862 136.215 490.837 113.419 469.424C91.3231 448.585 72.9602 423.703 60.1598 396.127C54.2877 383.973 50.1089 371.127 45.9574 358.318Z" fill="#E2A300"/>
<path fill-rule="evenodd" clip-rule="evenodd" d="M268.156 167.189C268.334 167.119 268.496 167.055 268.626 167.004C269.272 176.228 269.534 185.488 269.796 194.745C269.881 197.75 269.966 200.755 270.064 203.758C270.356 208.664 270.634 213.573 270.913 218.482C271.709 232.536 272.506 246.594 273.633 260.622C273.646 260.997 273.674 261.377 273.703 261.76C273.793 262.963 273.885 264.186 273.505 265.347C273.203 265.904 272.859 266.45 272.514 266.999C271.453 268.682 270.38 270.386 270.483 272.466C270.474 273.076 270.442 273.704 270.41 274.342C270.263 277.198 270.108 280.227 272.058 282.49C273.396 284.138 274.68 285.84 275.508 287.825C276.555 287.424 277.602 287.015 278.64 286.596C277.835 287.021 277.011 287.408 276.189 287.795L275.699 288.025C275.578 288.374 275.459 288.724 275.34 289.075C274.943 290.243 274.545 291.415 274.033 292.55C273.222 294.113 271.641 294.882 270.111 295.626C269.752 295.8 269.396 295.973 269.053 296.155C268.978 303.645 269.014 311.139 269.049 318.631V318.636C269.07 322.881 269.09 327.126 269.09 331.37C269.083 340.026 269.105 348.682 269.127 357.338C269.165 372.014 269.202 386.69 269.099 401.362C268.626 401.408 267.679 401.499 267.196 401.544C267.051 401.235 266.761 400.601 266.615 400.281L266.614 400.279C266.438 383.608 266.459 366.931 266.48 350.255C266.503 332.324 266.526 314.394 266.304 296.474C266.156 296.276 265.936 295.983 265.716 295.689L265.709 295.679C265.485 295.38 265.262 295.081 265.111 294.88C264.787 294.747 264.463 294.611 264.139 294.476C263.627 294.262 263.116 294.049 262.608 293.843C262.29 293.097 261.99 292.361 261.69 291.625L261.688 291.621C261.655 291.42 261.619 291.218 261.583 291.015C261.318 289.516 261.044 287.971 261.533 286.496C262.016 285.372 262.742 284.362 263.467 283.354C264.645 281.717 265.818 280.085 265.931 277.983C265.952 277.652 265.975 277.315 265.999 276.976C266.246 273.466 266.517 269.604 264.019 266.84C262.876 265.514 262.974 263.773 263.068 262.104C263.095 261.618 263.122 261.138 263.118 260.676C264.529 237.925 265.576 215.147 266.504 192.368C265.62 186.132 265.747 179.819 265.873 173.523C265.91 171.712 265.946 169.903 265.958 168.097L266.604 167.796C266.978 167.654 267.635 167.395 268.156 167.189Z" fill="#242B38"/>
<path d="M207.512 189.07C206.848 187.812 206.11 186.414 204.505 186.587C205.653 190.178 207.649 193.397 209.641 196.609C210.589 198.136 211.536 199.663 212.39 201.227C212.813 201.844 213.162 202.535 213.513 203.228C214.279 204.74 215.05 206.263 216.605 207.062L216.841 206.061C215.332 202.964 213.619 199.972 211.907 196.98C210.583 194.667 209.259 192.354 208.029 189.992C207.852 189.714 207.684 189.397 207.512 189.07Z" fill="#242B38"/>
<path d="M332.354 188.845L334.139 188.809C332.284 192.711 329.931 196.342 327.576 199.975C325.734 202.817 323.891 205.661 322.285 208.637L321.174 207.909L321.074 207.062C323.357 203.144 325.78 199.31 328.202 195.476C329.595 193.271 330.988 191.066 332.354 188.845Z" fill="#242B38"/>
<path d="M368.616 234.985C369.827 234.566 369.244 232.727 367.96 233.492C362.398 236.387 356.917 239.473 351.564 242.741C351.363 242.877 351.137 243.003 350.906 243.132C349.988 243.645 349.002 244.195 349.279 245.491C350.919 245.392 352.285 244.533 353.642 243.679C354.168 243.348 354.693 243.017 355.233 242.732C357.341 241.422 359.51 240.217 361.68 239.012C364.017 237.714 366.354 236.415 368.616 234.985Z" fill="#242B38"/>
<path d="M359.503 288.854C362.541 288.932 365.587 288.907 368.633 288.883C373.407 288.845 378.181 288.807 382.928 289.163C383.591 290.835 381.57 290.884 380.44 290.911L380.433 290.911C376.581 290.981 372.729 290.914 368.878 290.846H368.877C365.721 290.791 362.565 290.736 359.412 290.756C359.43 290.283 359.475 289.327 359.503 288.854Z" fill="#242B38"/>
<path d="M346.711 335.467C350.72 337.312 354.486 339.627 358.253 341.942C360.766 343.486 363.28 345.031 365.866 346.437L365.857 347.976C361.741 346.081 357.834 343.775 353.928 341.47C351.416 339.987 348.904 338.505 346.338 337.133C346.384 336.923 346.454 336.611 346.525 336.299C346.595 335.987 346.666 335.676 346.711 335.467Z" fill="#242B38"/>
<path d="M322.358 367.555C321.878 366.636 321.365 365.654 320.109 366.047C319.971 367.139 320.537 368.068 321.086 368.969C321.223 369.195 321.36 369.419 321.484 369.643C323.349 372.666 325.159 375.719 326.969 378.772C328.119 380.712 329.269 382.652 330.433 384.583C330.615 385.776 332.09 384.993 332.027 384.173C330.623 381.674 329.159 379.212 327.695 376.749C326.045 373.972 324.395 371.196 322.831 368.369C322.662 368.135 322.512 367.848 322.358 367.555Z" fill="#242B38"/>
<path d="M199.48 391.693L199.999 391.921C200.782 392.231 201.565 392.558 202.348 392.904C218.744 402.591 236.989 409.638 256.126 410.912C264.793 411.586 273.551 411.522 282.181 410.33C288.145 409.565 294.008 408.227 299.834 406.761C299.98 411.458 299.88 416.165 300.026 420.872L301.164 421.036C300.918 421.1 300.435 421.218 300.189 421.273C278.749 426.471 256.025 426.872 234.54 421.71C228.121 420.08 221.776 418.095 215.612 415.665C210.296 413.389 205.07 410.885 200.117 407.89C199.707 402.491 200.345 397.056 199.48 391.693Z" fill="#E2A300"/>
<path d="M349.078 411.031C350.757 409.954 352.389 408.807 354.022 407.659L354.024 407.658C355.552 406.584 357.08 405.51 358.647 404.494C341.376 440.685 319.954 474.706 301 510C301.34 483.812 301.144 457.643 301.828 431.46C303.105 431.166 304.383 430.857 305.66 430.548L305.706 430.537C306.116 430.438 306.526 430.339 306.935 430.24C308.229 429.909 309.499 429.495 310.774 429.08C311.078 428.981 311.383 428.882 311.688 428.784C319.463 426.253 327.219 423.449 334.357 419.425C339.337 416.766 344.29 414.026 349.078 411.031Z" fill="url(#paint3_linear_157_121)"/>
<path fill-rule="evenodd" clip-rule="evenodd" d="M235.368 430.441L233.839 430.149C238.089 458.61 243.699 487.086 249.88 515.2C249.88 515.2 265.674 543.271 273.578 557.024C282.605 540.434 292.82 524.503 302.119 508.062C302.119 508.062 301.201 455.475 301.828 431.46C280.698 435.885 258.575 435.994 237.544 430.923C236.998 430.796 235.914 430.559 235.368 430.441Z" fill="url(#paint4_linear_157_121)"/>
<defs>
<linearGradient id="paint0_linear_157_121" x1="272.185" y1="359.52" x2="272.185" y2="563.797" gradientUnits="userSpaceOnUse">
<stop stop-color="#D9DDDD" stop-opacity="0.5"/>
<stop offset="1" stop-color="#F2F2F2" stop-opacity="0.1"/>
</linearGradient>
<linearGradient id="paint1_linear_157_121" x1="170.18" y1="178.385" x2="170.18" y2="391.921" gradientUnits="userSpaceOnUse">
<stop stop-color="#232B37"/>
<stop offset="1" stop-color="#15A0DC"/>
</linearGradient>
<linearGradient id="paint2_linear_157_121" x1="112" y1="280.5" x2="200" y2="400" gradientUnits="userSpaceOnUse">
<stop stop-color="#232B37"/>
<stop offset="1" stop-color="#15A0DC"/>
</linearGradient>
<linearGradient id="paint3_linear_157_121" x1="329.823" y1="404.494" x2="329.823" y2="510" gradientUnits="userSpaceOnUse">
<stop stop-color="#56DBF8"/>
<stop offset="1" stop-color="#15A0DC"/>
</linearGradient>
<linearGradient id="paint4_linear_157_121" x1="267.979" y1="430.149" x2="267.979" y2="557.024" gradientUnits="userSpaceOnUse">
<stop stop-color="#15A0DC"/>
<stop offset="1" stop-color="#25323F"/>
</linearGradient>
</defs>
</svg>
